<?xml version="1.0" encoding="utf-8"?>
<!-- Generator: Adobe Illustrator 25.0.0, SVG Export Plug-In . SVG Version: 6.00 Build 0)  -->
<svg version="1.1" id="圖層_1" focusable="false" xmlns="http://www.w3.org/2000/svg" xmlns:xlink="http://www.w3.org/1999/xlink"
	 x="0px" y="0px" viewBox="0 0 576 512" style="enable-background:new 0 0 576 512;" xml:space="preserve">
<style type="text/css">
	.st0{fill:#C1BFAA;}
	.st1{fill:#EEC749;}
</style>
<path class="st0" d="M528.1,171.5L382,150.2L316.7,17.8C310.8,6,299.4,0,288,0v439.6l130.7,68.7c23.2,12.2,50.9-7.4,46.4-33.7
	l-25-145.5l105.7-103C564.8,207.6,554.3,175.3,528.1,171.5z"/>
<path class="st1" d="M259.3,17.8L259.3,17.8L194,150.2L47.9,171.5c-26.2,3.8-36.7,36.1-17.7,54.6l105.7,103l-25,145.5
	c-4.5,26.3,23.2,46,46.4,33.7L288,439.6V0C276.6,0,265.2,5.9,259.3,17.8z"/>
</svg>
